<?xml version="1.0" encoding="UTF-8" standalone="no"?>
<!DOCTYPE svg PUBLIC "-//W3C//DTD SVG 1.1//EN" "http://www.w3.org/Graphics/SVG/1.1/DTD/svg11.dtd">
<svg width="100%" height="100%" viewBox="0 0 800 800" version="1.1" xmlns="http://www.w3.org/2000/svg" xmlns:xlink="http://www.w3.org/1999/xlink" xml:space="preserve" xmlns:serif="http://www.serif.com/" style="fill-rule:evenodd;clip-rule:evenodd;stroke-linejoin:round;stroke-miterlimit:2;">
    <g transform="matrix(0.355306,0.93475,-0.93475,0.355306,589.877,-145.89)">
        <path d="M510.17,400C507.923,451.541 470.643,509.547 400,510.17C305.471,511.003 290.561,416.589 291.192,400.067C291.822,383.545 295.654,337.902 339.765,308.078C339.765,308.078 308.358,399.565 340.378,400.111C406.035,401.231 412.122,307.462 385.602,278.817C355.047,245.813 397.667,189.53 399.063,200.633C405.244,249.774 513.195,330.584 510.17,400Z" style="fill:rgb(0,45,113);fill-opacity:0.47;"/>
    </g>
    <g transform="matrix(0.248904,0.654826,-0.654826,0.248904,512.582,7.92307)">
        <path d="M510.17,400C507.923,451.541 470.643,509.547 400,510.17C305.471,511.003 290.561,416.589 291.192,400.067C291.822,383.545 295.654,337.902 339.765,308.078C339.765,308.078 308.358,399.565 340.378,400.111C406.035,401.231 412.122,307.462 385.602,278.817C355.047,245.813 397.667,189.53 399.063,200.633C405.244,249.774 513.195,330.584 510.17,400Z" style="fill:rgb(0,45,113);fill-opacity:0.76;"/>
    </g>
    <g transform="matrix(0.126155,0.331893,-0.331893,0.126155,437.172,165.856)">
        <path d="M510.17,400C507.923,451.541 470.643,509.547 400,510.17C305.471,511.003 290.561,416.589 291.192,400.067C291.822,383.545 295.654,337.902 339.765,308.078C339.765,308.078 308.358,399.565 340.378,400.111C406.035,401.231 412.122,307.462 385.602,278.817C355.047,245.813 397.667,189.53 399.063,200.633C405.244,249.774 513.195,330.584 510.17,400Z" style="fill:rgb(0,45,113);"/>
    </g>
</svg>
